HIERARCHY
ROOT Hips
{
	OFFSET	0.00	0.00	0.00
	CHANNELS 6 Xposition Yposition Zposition Zrotation Xrotation Yrotation
	JOINT LeftUpLeg
	{
		OFFSET	 0.126116	-0.014019	-0.065224
		CHANNELS 3 Zrotation Xrotation Yrotation
		JOINT LeftLeg
		{
			OFFSET	 0.000000	 0.000000	 0.569914
			CHANNELS 3 Zrotation Xrotation Yrotation
			JOINT LeftFoot
			{
				OFFSET	 0.000000	 0.000000	 0.544423
				CHANNELS 3 Zrotation Xrotation Yrotation
				JOINT LeftToeBase
				{
					OFFSET	 0.000000	 0.000000	 0.207117
					CHANNELS 3 Zrotation Xrotation Yrotation
					End Site
					{
						OFFSET	 0.000000	 0.000000	 0.207117
					}
				}
			}
		}
	}
	JOINT RightUpLeg
	{
		OFFSET	-0.124023	-0.008373	-0.065224
		CHANNELS 3 Zrotation Xrotation Yrotation
		JOINT RightLeg
		{
			OFFSET	 0.000000	 0.000000	 0.570047
			CHANNELS 3 Zrotation Xrotation Yrotation
			JOINT RightFoot
			{
				OFFSET	 0.000000	 0.000000	 0.544354
				CHANNELS 3 Zrotation Xrotation Yrotation
				JOINT RightToeBase
				{
					OFFSET	 0.000000	 0.000000	 0.207540
					CHANNELS 3 Zrotation Xrotation Yrotation
					End Site
					{
						OFFSET	 0.000000	 0.000000	 0.207540
					}
				}
			}
		}
	}
	JOINT Spine
	{
		OFFSET	 0.000184	-0.007763	 0.117403
		CHANNELS 3 Zrotation Xrotation Yrotation
		JOINT Spine1
		{
			OFFSET	 0.000000	 0.000000	 0.137269
			CHANNELS 3 Zrotation Xrotation Yrotation
			JOINT Spine2
			{
				OFFSET	 0.000000	 0.000000	 0.156879
				CHANNELS 3 Zrotation Xrotation Yrotation
				JOINT LeftShoulder
				{
					OFFSET	 0.080501	-0.002496	 0.160144
					CHANNELS 3 Zrotation Xrotation Yrotation
					JOINT LeftArm
					{
						OFFSET	 0.000000	 0.000000	 0.164363
						CHANNELS 3 Zrotation Xrotation Yrotation
						JOINT LeftForeArm
						{
							OFFSET	 0.000000	 0.000000	 0.364576
							CHANNELS 3 Zrotation Xrotation Yrotation
							JOINT LeftHand
							{
								OFFSET	 0.000000	 0.000000	 0.360812
								CHANNELS 3 Zrotation Xrotation Yrotation
								JOINT LeftHandIndex1
								{
									OFFSET	 0.000000	 0.000000	 0.086006
									CHANNELS 3 Zrotation Xrotation Yrotation
									JOINT LeftHandIndex2
									{
										OFFSET	 0.000000	 0.000000	 0.047236
										CHANNELS 3 Zrotation Xrotation Yrotation
										JOINT LeftHandIndex3
										{
											OFFSET	-0.004284	-0.000551	 0.038166
											CHANNELS 3 Zrotation Xrotation Yrotation
											End Site
											{
												OFFSET	-0.004284	-0.000551	 0.038166
											}
										}
									}
								}
							}
						}
					}
				}
				JOINT Neck
				{
					OFFSET	 0.000000	 0.000000	 0.176489
					CHANNELS 3 Zrotation Xrotation Yrotation
					JOINT Head
					{
						OFFSET	 0.000000	-0.001747	 0.077940
						CHANNELS 3 Zrotation Xrotation Yrotation
						End Site
						{
							OFFSET	 0.000000	-0.001747	 0.077940
						}
					}
				}
				JOINT RightShoulder
				{
					OFFSET	-0.080363	 0.000306	 0.159706
					CHANNELS 3 Zrotation Xrotation Yrotation
					JOINT RightArm
					{
						OFFSET	 0.000000	 0.000000	 0.164196
						CHANNELS 3 Zrotation Xrotation Yrotation
						JOINT RightForeArm
						{
							OFFSET	 0.000000	 0.000000	 0.365611
							CHANNELS 3 Zrotation Xrotation Yrotation
							JOINT RightHand
							{
								OFFSET	 0.000000	 0.000000	 0.360648
								CHANNELS 3 Zrotation Xrotation Yrotation
								JOINT RightHandIndex1
								{
									OFFSET	 0.000000	 0.000000	 0.069977
									CHANNELS 3 Zrotation Xrotation Yrotation
									JOINT RightHandIndex2
									{
										OFFSET	 0.000000	 0.000000	 0.052305
										CHANNELS 3 Zrotation Xrotation Yrotation
										JOINT RightHandIndex3
										{
											OFFSET	 0.009002	-0.000782	 0.042196
											CHANNELS 3 Zrotation Xrotation Yrotation
											End Site
											{
												OFFSET	 0.009002	-0.000782	 0.042196
											}
										}
									}
								}
							}
						}
					}
				}
			}
		}
	}
}
MOTION
Frames:    11
Frame Time: 0.03333334
 0.000255	 0.046890	 1.271222	-0.067203	 2.824047	 0.738297	 20.816850	-8.680836	 176.689900	 2.232431	-15.671730	 0.716029	 0.328417	 71.313390	-0.461545	-2.385833	 28.452750	 0.000004	-13.397080	-7.755383	-177.486600	-0.741802	-13.705440	 1.045495	 5.232625	 70.223330	 1.105520	 2.384659	 28.388700	-0.000001	-4.558757	 7.547945	-0.174462	 0.883181	-6.077905	 0.272221	-2.182314	 10.171660	 0.572904	-91.074280	 69.144990	-177.611300	-7.305045	 0.088326	-26.859320	 22.321040	 0.012872	-2.139513	-7.917362	-10.945720	-4.334984	-2.027600	 6.559038	 9.033609	-5.188889	 0.308190	 3.541030	-5.234859	 0.342567	 0.430617	 4.570882	 19.466460	-7.220301	-7.321708	-14.474040	 1.752226	 88.884750	 67.799310	 177.107300	 9.210032	 9.688941	 12.048940	-23.653860	-6.202781	 22.680700	 4.943656	-10.705370	 5.912682	 1.803333	 3.979147	-15.098590	 4.898592	 3.004813	-9.310344	 5.224449	 0.395017	 2.014677
-0.000108	 0.051427	 1.268274	-0.022098	 3.435319	 0.826252	 21.269900	-10.546930	 176.877200	 2.218421	-17.599990	 0.797244	 1.722383	 72.018810	-1.956658	-2.385833	 28.452750	 0.000004	-14.028420	-9.588221	-177.892600	-0.691986	-15.678400	 1.205971	 4.514071	 71.022610	 1.917103	 2.384659	 28.388700	-0.000001	-7.978004	 8.055593	-0.204079	 0.869712	-7.074476	 0.265071	-2.213639	 11.837680	 0.659787	-90.965420	 68.403710	-177.385300	-6.377429	 0.819968	-29.201650	 19.877480	 0.187804	-3.093572	-7.018038	-11.809630	-4.729453	-2.027600	 6.559038	 9.033609	-5.188889	 0.308190	 3.541030	-5.234859	 0.342567	 0.430617	 4.702999	 21.571830	-7.860643	-7.170455	-15.998460	 1.664670	 88.706150	 66.566730	 176.789200	 8.056803	 10.936720	 13.670810	-21.824160	-5.248431	 23.526490	 3.846776	-11.052800	 5.617092	 1.803333	 3.979147	-15.098590	 4.898592	 3.004813	-9.310344	 5.224449	 0.395017	 2.014677
-0.000963	 0.061198	 1.262441	 0.082769	 4.667043	 0.987015	 22.029720	-14.255190	 177.319000	 2.304818	-21.350760	 0.986449	 4.902613	 73.379680	-5.470402	-2.385833	 28.452760	 0.000004	-15.203360	-13.016130	-178.741300	-0.655065	-19.073930	 1.470367	 2.648310	 72.311420	 4.086226	 2.384659	 28.388700	-0.000001	-13.587210	 8.916025	-0.265658	 0.906427	-7.735016	 0.220628	-2.400332	 13.970860	 0.822095	-90.824120	 67.259030	-177.147900	-4.928128	 2.373645	-33.629500	 15.471440	 0.650498	-4.716040	-5.911644	-13.400910	-5.664438	-2.027600	 6.559038	 9.033609	-5.188889	 0.308190	 3.541030	-5.234859	 0.342567	 0.430617	 4.721756	 24.731170	-8.729934	-6.854980	-18.433010	 1.516649	 88.425990	 64.430980	 176.378000	 5.673977	 13.318870	 16.902920	-18.509420	-3.393943	 24.846410	 2.082245	-11.703560	 5.309667	 1.803333	 3.979147	-15.098590	 4.898592	 3.004813	-9.310344	 5.224449	 0.395017	 2.014677
-0.001774	 0.071422	 1.258046	 0.193386	 6.055100	 1.133694	 22.646570	-17.621060	 177.913000	 2.319688	-24.066170	 1.116519	 8.746640	 74.157940	-9.685424	-2.385832	 28.452790	-0.000001	-16.366920	-16.055590	-179.671700	-0.985831	-21.292470	 1.513085	 0.235039	 73.006500	 7.215466	 2.384659	 28.388700	-0.000001	-17.954020	 9.584313	-0.356471	 1.001849	-7.575078	 0.187212	-2.702234	 15.118560	 0.922087	-90.836160	 65.927860	-177.385500	-3.781588	 2.816159	-37.061670	 10.722160	 1.204133	-6.042724	-6.031803	-14.570880	-6.904348	-2.027600	 6.559038	 9.033609	-5.188889	 0.308190	 3.541030	-5.234859	 0.342567	 0.430617	 4.368377	 26.139210	-8.814702	-6.685536	-19.645700	 1.241360	 88.390500	 62.451730	 176.582200	 3.148974	 14.184370	 18.879650	-15.124000	-1.711221	 27.412860	 0.765935	-12.042610	 5.574973	 1.803333	 3.979147	-15.098590	 4.898592	 3.004813	-9.310344	 5.224449	 0.395017	 2.014677
-0.002362	 0.085747	 1.252824	 0.463355	 8.062470	 1.208574	 23.310760	-21.798580	 179.021500	 2.280654	-26.771070	 1.215607	 14.288900	 74.379620	-15.748660	-2.385833	 28.452760	 0.000004	-17.815480	-20.019040	 179.074700	-1.194872	-23.627890	 1.585815	-3.750816	 73.431270	 12.027730	 2.384659	 28.388700	-0.000001	-22.548560	 10.204790	-0.473776	 1.154567	-7.293387	 0.154243	-3.087864	 15.962370	 1.114002	-91.315120	 65.051380	-178.772100	-2.612597	 4.007442	-39.782550	 5.917852	 1.998659	-7.500158	-6.345845	-15.341230	-8.377608	-2.027600	 6.559038	 9.033609	-5.188889	 0.308190	 3.541030	-5.234859	 0.342567	 0.430617	 3.877594	 26.838610	-8.771922	-6.508065	-20.520330	 0.997790	 88.821620	 61.233750	 177.743900	-0.101250	 15.946890	 20.267260	-11.646970	 0.419403	 30.263570	-0.642756	-12.397380	 5.880980	 1.803333	 3.979147	-15.098590	 4.898592	 3.004813	-9.310344	 5.224449	 0.395017	 2.014677
-0.003294	 0.101377	 1.246941	 0.731976	 10.324720	 1.205901	 24.005930	-26.067050	-179.612100	 2.287964	-29.256640	 1.322503	 20.468970	 74.329350	-22.626260	-2.385833	 28.452760	 0.000004	-19.205870	-24.314600	 177.704200	-1.341852	-26.187190	 1.680900	-8.748663	 73.943590	 17.927290	 2.384659	 28.388700	-0.000001	-26.369800	 10.782400	-0.542911	 1.334711	-6.569903	 0.032440	-3.440663	 16.239490	 1.484740	-92.068920	 64.906740	 179.225500	-1.975114	 5.424926	-41.425090	 2.317318	 2.902960	-8.808441	-6.404599	-15.775240	-9.425240	-2.027600	 6.559038	 9.033609	-5.188889	 0.308190	 3.541030	-5.234859	 0.342567	 0.430617	 3.397651	 26.240640	-8.857948	-6.342154	-20.633090	 0.759093	 89.542220	 60.587120	 179.448700	-3.347674	 17.985150	 21.297500	-8.381792	 2.793393	 33.570580	-1.490931	-12.856480	 6.180322	 1.803333	 3.979147	-15.098590	 4.898592	 3.004813	-9.310344	 5.224449	 0.395017	 2.014677
-0.004745	 0.114803	 1.241926	 1.030433	 12.560380	 1.184941	 24.526620	-29.733800	-178.329100	 2.444801	-31.073000	 1.477723	 25.851920	 74.092730	-28.808760	-2.385832	 28.452790	-0.000001	-20.456140	-28.099980	 176.403600	-1.398221	-28.414480	 1.785467	-13.980810	 74.443210	 23.966570	 2.384659	 28.388700	-0.000001	-28.972900	 11.194960	-0.565358	 1.435723	-5.462710	-0.119358	-3.715382	 15.958260	 1.828297	-92.771110	 65.160750	 177.336500	-1.878785	 6.321425	-42.074190	 0.035550	 3.732409	-9.802967	-6.175855	-15.976140	-9.948288	-2.027600	 6.559038	 9.033609	-5.188889	 0.308190	 3.541030	-5.234859	 0.342567	 0.430617	 3.029119	 25.057430	-8.995089	-6.223637	-20.343190	 0.518715	 90.262410	 60.272600	-178.907500	-6.063216	 19.639600	 22.282210	-5.791323	 5.083900	 36.907200	-1.774288	-13.270730	 6.457055	 1.803333	 3.979147	-15.098590	 4.898592	 3.004813	-9.310344	 5.224449	 0.395017	 2.014677
-0.008190	 0.133111	 1.237598	 2.182119	 16.598880	 1.229438	 24.213220	-35.197590	-176.493100	 3.271757	-32.273040	 1.971332	 30.738430	 72.630570	-35.450050	-2.385833	 28.452760	 0.000004	-23.061280	-33.306440	 173.827100	-0.870274	-30.273710	 2.158658	-21.879270	 74.030590	 32.579570	 2.384659	 28.388700	-0.000001	-31.396170	 11.027710	-0.648058	 1.142247	-4.196466	-0.384044	-4.135629	 14.673940	 1.704597	-93.529480	 65.311810	 175.273700	-1.466630	 6.533614	-42.193900	-2.496021	 4.744967	-10.823150	-5.797404	-15.659790	-10.371570	-2.027600	 6.559038	 9.033609	-5.188889	 0.308190	 3.541030	-5.234859	 0.342567	 0.430617	 2.677772	 24.408610	-8.487986	-6.204911	-20.551370	 0.133885	 91.138400	 60.575340	-176.884800	-9.309153	 21.368180	 23.554860	-3.382073	 7.978905	 41.420350	-1.966808	-13.315190	 6.996184	 1.803333	 3.979147	-15.098590	 4.898592	 3.004813	-9.310344	 5.224449	 0.395017	 2.014677
-0.013884	 0.161083	 1.230744	 3.973403	 21.627970	 0.945120	 23.424700	-42.508190	-173.952300	 4.310337	-33.703270	 2.627031	 34.232120	 69.891280	-41.410900	-2.385833	 28.452760	 0.000004	-26.905650	-40.231290	 169.930000	-1.470378	-32.643320	 1.984730	-29.968690	 72.662410	 42.954260	 2.384659	 28.388700	-0.000001	-33.013820	 10.821850	-0.834519	 0.682022	-2.150984	-0.730240	-4.739270	 12.841060	 1.265851	-94.287220	 66.039570	 172.981800	-1.551906	 6.791292	-42.885010	-5.403884	 6.102061	-11.955110	-5.637641	-15.629570	-10.933950	-2.027600	 6.559038	 9.033609	-5.188889	 0.308190	 3.541030	-5.234859	 0.342567	 0.430617	 2.237636	 23.761840	-6.964809	-6.456912	-21.054800	-0.911356	 92.160640	 61.506750	-174.362000	-12.226940	 23.153920	 26.934500	-1.253697	 11.343240	 44.859730	-1.977214	-13.103400	 7.626298	 1.803333	 3.979147	-15.098590	 4.898592	 3.004813	-9.310344	 5.224449	 0.395017	 2.014677
-0.016564	 0.174027	 1.225424	 4.264054	 22.573630	 0.858499	 23.778650	-44.908260	-173.057300	 4.379998	-34.967660	 2.753284	 36.070680	 69.215650	-43.912390	-2.385833	 28.452750	 0.000004	-28.095580	-42.675950	 168.556500	-1.416498	-34.273220	 2.102412	-32.752130	 72.165890	 46.499790	 2.384659	 28.388700	-0.000001	-32.850520	 11.132200	-0.924386	 0.759120	 0.016577	-0.964747	-4.866338	 12.133830	 1.221143	-94.458760	 67.112830	 172.043500	-2.115972	 7.003506	-43.812170	-6.515625	 6.735270	-12.410090	-5.617918	-15.884170	-11.119950	-2.027600	 6.559038	 9.033609	-5.188889	 0.308190	 3.541030	-5.234859	 0.342567	 0.430617	 1.892418	 23.242270	-6.499048	-6.484467	-21.280320	-1.271759	 92.483100	 62.014990	-173.479400	-12.348340	 23.835850	 28.715330	-0.428738	 12.937580	 46.451270	-1.160449	-13.387680	 8.181147	 1.803333	 3.979147	-15.098590	 4.898592	 3.004813	-9.310344	 5.224449	 0.395017	 2.014677
-0.020113	 0.193694	 1.216941	 4.330427	 23.951370	 0.715604	 24.789290	-48.337090	-171.408900	 4.465035	-36.595300	 2.914744	 38.258960	 67.958720	-47.125710	-2.385833	 28.452750	 0.000004	-29.264330	-46.359490	 166.634400	-1.562738	-36.318850	 2.124249	-35.274480	 71.014050	 50.433860	 2.384659	 28.388700	-0.000001	-31.731380	 11.598980	-1.040095	 1.013583	 2.265983	-1.268380	-4.963906	 11.475870	 1.338485	-94.564990	 68.828300	 170.747400	-3.065789	 7.260015	-44.913330	-8.061284	 7.566678	-12.948590	-5.897894	-16.550250	-11.412560	-2.027600	 6.559038	 9.033609	-5.188889	 0.308190	 3.541030	-5.234859	 0.342567	 0.430617	 1.422475	 22.361670	-6.047740	-6.475948	-21.494050	-1.651940	 92.870510	 63.046770	-172.241400	-12.195420	 24.684840	 30.704510	 0.529803	 15.145220	 48.750110	 0.294313	-14.026260	 9.060013	 1.803333	 3.979147	-15.098590	 4.898592	 3.004813	-9.310344	 5.224449	 0.395017	 2.014677
